<mxfile host="65bd71144e">
    <diagram id="a4kgavTqdTj_b3KPuJNV" name="Page-1">
        <mxGraphModel dx="496" dy="547" grid="1" gridSize="10" guides="1" tooltips="1" connect="1" arrows="1" fold="1" page="1" pageScale="1" pageWidth="850" pageHeight="1100" math="0" shadow="0">
            <root>
                <mxCell id="0"/>
                <mxCell id="1" parent="0"/>
                <mxCell id="2" value="" style="rounded=0;whiteSpace=wrap;html=1;" vertex="1" parent="1">
                    <mxGeometry x="130" y="60" width="450" height="350" as="geometry"/>
                </mxCell>
                <mxCell id="3" value="" style="rounded=0;whiteSpace=wrap;html=1;strokeColor=#FF3333;" vertex="1" parent="1">
                    <mxGeometry x="130" y="60" width="120" height="350" as="geometry"/>
                </mxCell>
                <mxCell id="4" value="" style="endArrow=classic;html=1;entryX=0.667;entryY=0.114;entryDx=0;entryDy=0;entryPerimeter=0;strokeColor=#FF3333;" edge="1" parent="1">
                    <mxGeometry width="50" height="50" relative="1" as="geometry">
                        <mxPoint x="241" y="71" as="sourcePoint"/>
                        <mxPoint x="231.04000000000002" y="70.90000000000003" as="targetPoint"/>
                        <Array as="points">
                            <mxPoint x="231" y="71"/>
                        </Array>
                    </mxGeometry>
                </mxCell>
                <mxCell id="5" value="&lt;h1 style=&quot;margin-top: 0px;&quot;&gt;&lt;font style=&quot;font-size: 21px;&quot;&gt;Constraints&lt;/font&gt;&lt;/h1&gt;&lt;p&gt;Author&lt;/p&gt;&lt;p&gt;Date&amp;nbsp;&lt;/p&gt;&lt;p&gt;Publisher&lt;/p&gt;" style="text;html=1;whiteSpace=wrap;overflow=hidden;rounded=0;" vertex="1" parent="1">
                    <mxGeometry x="130" y="80" width="120" height="120" as="geometry"/>
                </mxCell>
                <mxCell id="6" value="&lt;p&gt;&lt;font style=&quot;font-size: 15px; color: rgb(0, 0, 0);&quot;&gt;&lt;span style=&quot;-webkit-user-drag: none; -webkit-tap-highlight-color: transparent; margin: 0px; padding: 0px; user-select: text; white-space-collapse: preserve; line-height: 29.1375px; font-family: &amp;quot;Times New Roman&amp;quot;, &amp;quot;Times New Roman_EmbeddedFont&amp;quot;, &amp;quot;Times New Roman_MSFontService&amp;quot;, serif; font-variant-ligatures: none !important;&quot; class=&quot;TextRun SCXW232750993 BCX8&quot; lang=&quot;EN-US&quot; data-contrast=&quot;auto&quot;&gt;&lt;span style=&quot;-webkit-user-drag: none; -webkit-tap-highlight-color: transparent; margin: 0px; padding: 0px; user-select: text;&quot; data-ccp-parastyle-defn=&quot;{&amp;quot;ObjectId&amp;quot;:&amp;quot;3bc3bb98-0c20-4950-9d72-83c56486bc65|10&amp;quot;,&amp;quot;ClassId&amp;quot;:1073872969,&amp;quot;Properties&amp;quot;:[335551550,&amp;quot;2&amp;quot;,335551620,&amp;quot;2&amp;quot;,469777841,&amp;quot;Times New Roman&amp;quot;,469777842,&amp;quot;Times New Roman&amp;quot;,469777843,&amp;quot;Times New Roman&amp;quot;,469777844,&amp;quot;Times New Roman&amp;quot;,469769226,&amp;quot;Times New Roman&amp;quot;,469775450,&amp;quot;Author Affiliations&amp;quot;,201340122,&amp;quot;2&amp;quot;,134234082,&amp;quot;true&amp;quot;,134233614,&amp;quot;true&amp;quot;,469778129,&amp;quot;AuthorAffiliations&amp;quot;,335572020,&amp;quot;1&amp;quot;,134224901,&amp;quot;true&amp;quot;,335559739,&amp;quot;240&amp;quot;,469775498,&amp;quot;Author Names&amp;quot;,469778324,&amp;quot;Normal&amp;quot;]}&quot; data-ccp-parastyle=&quot;Author Affiliations&quot; class=&quot;NormalTextRun SCXW232750993 BCX8&quot;&gt;Streamlining NASA Research Retrieval with RAG-Inspired Semantic Search: DEMO/Rapid Prototype Version&lt;/span&gt;&lt;/span&gt;&lt;/font&gt;&lt;/p&gt;" style="rounded=0;whiteSpace=wrap;html=1;fillColor=#dae8fc;strokeColor=#6c8ebf;align=left;" vertex="1" parent="1">
                    <mxGeometry x="250" y="60" width="330" height="140" as="geometry"/>
                </mxCell>
                <mxCell id="7" value="Enter Query" style="rounded=1;whiteSpace=wrap;html=1;align=left;" vertex="1" parent="1">
                    <mxGeometry x="260" y="215" width="310" height="40" as="geometry"/>
                </mxCell>
                <mxCell id="8" value="" style="html=1;verticalLabelPosition=bottom;align=center;labelBackgroundColor=#ffffff;verticalAlign=top;strokeWidth=2;strokeColor=#000000;shadow=0;dashed=0;shape=mxgraph.ios7.icons.looking_glass;" vertex="1" parent="1">
                    <mxGeometry x="550" y="240" width="10" height="10" as="geometry"/>
                </mxCell>
                <mxCell id="9" value="EX" style="rounded=1;whiteSpace=wrap;html=1;" vertex="1" parent="1">
                    <mxGeometry x="270" y="270" width="60" height="20" as="geometry"/>
                </mxCell>
                <mxCell id="10" value="EX" style="rounded=1;whiteSpace=wrap;html=1;" vertex="1" parent="1">
                    <mxGeometry x="340" y="270" width="60" height="20" as="geometry"/>
                </mxCell>
                <mxCell id="11" value="EX" style="rounded=1;whiteSpace=wrap;html=1;" vertex="1" parent="1">
                    <mxGeometry x="410" y="270" width="60" height="20" as="geometry"/>
                </mxCell>
                <mxCell id="12" value="EX" style="rounded=1;whiteSpace=wrap;html=1;" vertex="1" parent="1">
                    <mxGeometry x="480" y="270" width="60" height="20" as="geometry"/>
                </mxCell>
                <mxCell id="13" value="Opening Page Pre-Query" style="text;html=1;align=center;verticalAlign=middle;resizable=0;points=[];autosize=1;strokeColor=none;fillColor=none;" vertex="1" parent="1">
                    <mxGeometry x="130" y="30" width="160" height="30" as="geometry"/>
                </mxCell>
                <mxCell id="14" value="" style="rounded=0;whiteSpace=wrap;html=1;" vertex="1" parent="1">
                    <mxGeometry x="130" y="470" width="450" height="350" as="geometry"/>
                </mxCell>
                <mxCell id="15" value="" style="rounded=0;whiteSpace=wrap;html=1;strokeColor=#FF3333;" vertex="1" parent="1">
                    <mxGeometry x="130" y="470" width="120" height="350" as="geometry"/>
                </mxCell>
                <mxCell id="16" value="" style="endArrow=classic;html=1;entryX=0.667;entryY=0.114;entryDx=0;entryDy=0;entryPerimeter=0;strokeColor=#FF3333;" edge="1" parent="1">
                    <mxGeometry width="50" height="50" relative="1" as="geometry">
                        <mxPoint x="241" y="481" as="sourcePoint"/>
                        <mxPoint x="231.04000000000002" y="480.90000000000003" as="targetPoint"/>
                        <Array as="points">
                            <mxPoint x="231" y="481"/>
                        </Array>
                    </mxGeometry>
                </mxCell>
                <mxCell id="17" value="&lt;h1 style=&quot;margin-top: 0px;&quot;&gt;&lt;font style=&quot;font-size: 21px;&quot;&gt;Constraints&lt;/font&gt;&lt;/h1&gt;&lt;p&gt;Author&lt;/p&gt;&lt;p&gt;Date&amp;nbsp;&lt;/p&gt;&lt;p&gt;Publisher&lt;/p&gt;" style="text;html=1;whiteSpace=wrap;overflow=hidden;rounded=0;" vertex="1" parent="1">
                    <mxGeometry x="130" y="490" width="120" height="120" as="geometry"/>
                </mxCell>
                <mxCell id="18" value="&lt;p&gt;&lt;font style=&quot;font-size: 15px; color: rgb(0, 0, 0);&quot;&gt;&lt;span style=&quot;-webkit-user-drag: none; -webkit-tap-highlight-color: transparent; margin: 0px; padding: 0px; user-select: text; white-space-collapse: preserve; line-height: 29.1375px; font-family: &amp;quot;Times New Roman&amp;quot;, &amp;quot;Times New Roman_EmbeddedFont&amp;quot;, &amp;quot;Times New Roman_MSFontService&amp;quot;, serif; font-variant-ligatures: none !important;&quot; class=&quot;TextRun SCXW232750993 BCX8&quot; lang=&quot;EN-US&quot; data-contrast=&quot;auto&quot;&gt;&lt;span style=&quot;-webkit-user-drag: none; -webkit-tap-highlight-color: transparent; margin: 0px; padding: 0px; user-select: text;&quot; data-ccp-parastyle-defn=&quot;{&amp;quot;ObjectId&amp;quot;:&amp;quot;3bc3bb98-0c20-4950-9d72-83c56486bc65|10&amp;quot;,&amp;quot;ClassId&amp;quot;:1073872969,&amp;quot;Properties&amp;quot;:[335551550,&amp;quot;2&amp;quot;,335551620,&amp;quot;2&amp;quot;,469777841,&amp;quot;Times New Roman&amp;quot;,469777842,&amp;quot;Times New Roman&amp;quot;,469777843,&amp;quot;Times New Roman&amp;quot;,469777844,&amp;quot;Times New Roman&amp;quot;,469769226,&amp;quot;Times New Roman&amp;quot;,469775450,&amp;quot;Author Affiliations&amp;quot;,201340122,&amp;quot;2&amp;quot;,134234082,&amp;quot;true&amp;quot;,134233614,&amp;quot;true&amp;quot;,469778129,&amp;quot;AuthorAffiliations&amp;quot;,335572020,&amp;quot;1&amp;quot;,134224901,&amp;quot;true&amp;quot;,335559739,&amp;quot;240&amp;quot;,469775498,&amp;quot;Author Names&amp;quot;,469778324,&amp;quot;Normal&amp;quot;]}&quot; data-ccp-parastyle=&quot;Author Affiliations&quot; class=&quot;NormalTextRun SCXW232750993 BCX8&quot;&gt;Streamlining NASA Research Retrieval with RAG-Inspired Semantic Search: DEMO/Rapid Prototype Version&lt;/span&gt;&lt;/span&gt;&lt;/font&gt;&lt;/p&gt;" style="rounded=0;whiteSpace=wrap;html=1;fillColor=#dae8fc;strokeColor=#6c8ebf;align=left;" vertex="1" parent="1">
                    <mxGeometry x="250" y="470" width="330" height="80" as="geometry"/>
                </mxCell>
                <mxCell id="19" value="Entered Query&amp;nbsp;" style="rounded=1;whiteSpace=wrap;html=1;align=left;" vertex="1" parent="1">
                    <mxGeometry x="260" y="560" width="310" height="40" as="geometry"/>
                </mxCell>
                <mxCell id="20" value="" style="html=1;verticalLabelPosition=bottom;align=center;labelBackgroundColor=#ffffff;verticalAlign=top;strokeWidth=2;strokeColor=#000000;shadow=0;dashed=0;shape=mxgraph.ios7.icons.looking_glass;" vertex="1" parent="1">
                    <mxGeometry x="550" y="580" width="10" height="10" as="geometry"/>
                </mxCell>
                <mxCell id="21" value="" style="shape=table;startSize=0;container=1;collapsible=0;childLayout=tableLayout;fontSize=16;rounded=0;shadow=0;perimeterSpacing=16;" vertex="1" parent="1">
                    <mxGeometry x="260" y="630" width="310" height="120" as="geometry"/>
                </mxCell>
                <mxCell id="22" value="" style="shape=tableRow;horizontal=0;startSize=0;swimlaneHead=0;swimlaneBody=0;strokeColor=inherit;top=0;left=0;bottom=0;right=0;collapsible=0;dropTarget=0;fillColor=none;points=[[0,0.5],[1,0.5]];portConstraint=eastwest;fontSize=16;" vertex="1" parent="21">
                    <mxGeometry width="310" height="40" as="geometry"/>
                </mxCell>
                <mxCell id="23" value="Rank" style="shape=partialRectangle;html=1;whiteSpace=wrap;connectable=0;strokeColor=inherit;overflow=hidden;fillColor=none;top=0;left=0;bottom=0;right=0;pointerEvents=1;fontSize=16;" vertex="1" parent="22">
                    <mxGeometry width="62" height="40" as="geometry">
                        <mxRectangle width="62" height="40" as="alternateBounds"/>
                    </mxGeometry>
                </mxCell>
                <mxCell id="24" value="Title" style="shape=partialRectangle;html=1;whiteSpace=wrap;connectable=0;strokeColor=inherit;overflow=hidden;fillColor=none;top=0;left=0;bottom=0;right=0;pointerEvents=1;fontSize=16;" vertex="1" parent="22">
                    <mxGeometry x="62" width="62" height="40" as="geometry">
                        <mxRectangle width="62" height="40" as="alternateBounds"/>
                    </mxGeometry>
                </mxCell>
                <mxCell id="25" value="Abstract" style="shape=partialRectangle;html=1;whiteSpace=wrap;connectable=0;strokeColor=inherit;overflow=hidden;fillColor=none;top=0;left=0;bottom=0;right=0;pointerEvents=1;fontSize=16;" vertex="1" parent="22">
                    <mxGeometry x="124" width="62" height="40" as="geometry">
                        <mxRectangle width="62" height="40" as="alternateBounds"/>
                    </mxGeometry>
                </mxCell>
                <mxCell id="26" value="Link" style="shape=partialRectangle;html=1;whiteSpace=wrap;connectable=0;strokeColor=inherit;overflow=hidden;fillColor=none;top=0;left=0;bottom=0;right=0;pointerEvents=1;fontSize=16;" vertex="1" parent="22">
                    <mxGeometry x="186" width="62" height="40" as="geometry">
                        <mxRectangle width="62" height="40" as="alternateBounds"/>
                    </mxGeometry>
                </mxCell>
                <mxCell id="27" value="Meta" style="shape=partialRectangle;html=1;whiteSpace=wrap;connectable=0;strokeColor=inherit;overflow=hidden;fillColor=none;top=0;left=0;bottom=0;right=0;pointerEvents=1;fontSize=16;" vertex="1" parent="22">
                    <mxGeometry x="248" width="62" height="40" as="geometry">
                        <mxRectangle width="62" height="40" as="alternateBounds"/>
                    </mxGeometry>
                </mxCell>
                <mxCell id="28" value="" style="shape=tableRow;horizontal=0;startSize=0;swimlaneHead=0;swimlaneBody=0;strokeColor=inherit;top=0;left=0;bottom=0;right=0;collapsible=0;dropTarget=0;fillColor=none;points=[[0,0.5],[1,0.5]];portConstraint=eastwest;fontSize=16;" vertex="1" parent="21">
                    <mxGeometry y="40" width="310" height="40" as="geometry"/>
                </mxCell>
                <mxCell id="29" value="1" style="shape=partialRectangle;html=1;whiteSpace=wrap;connectable=0;strokeColor=inherit;overflow=hidden;fillColor=none;top=0;left=0;bottom=0;right=0;pointerEvents=1;fontSize=16;" vertex="1" parent="28">
                    <mxGeometry width="62" height="40" as="geometry">
                        <mxRectangle width="62" height="40" as="alternateBounds"/>
                    </mxGeometry>
                </mxCell>
                <mxCell id="30" style="shape=partialRectangle;html=1;whiteSpace=wrap;connectable=0;strokeColor=inherit;overflow=hidden;fillColor=none;top=0;left=0;bottom=0;right=0;pointerEvents=1;fontSize=16;" vertex="1" parent="28">
                    <mxGeometry x="62" width="62" height="40" as="geometry">
                        <mxRectangle width="62" height="40" as="alternateBounds"/>
                    </mxGeometry>
                </mxCell>
                <mxCell id="31" value="" style="shape=partialRectangle;html=1;whiteSpace=wrap;connectable=0;strokeColor=inherit;overflow=hidden;fillColor=none;top=0;left=0;bottom=0;right=0;pointerEvents=1;fontSize=16;" vertex="1" parent="28">
                    <mxGeometry x="124" width="62" height="40" as="geometry">
                        <mxRectangle width="62" height="40" as="alternateBounds"/>
                    </mxGeometry>
                </mxCell>
                <mxCell id="32" value="" style="shape=partialRectangle;html=1;whiteSpace=wrap;connectable=0;strokeColor=inherit;overflow=hidden;fillColor=none;top=0;left=0;bottom=0;right=0;pointerEvents=1;fontSize=16;" vertex="1" parent="28">
                    <mxGeometry x="186" width="62" height="40" as="geometry">
                        <mxRectangle width="62" height="40" as="alternateBounds"/>
                    </mxGeometry>
                </mxCell>
                <mxCell id="33" value="" style="shape=partialRectangle;html=1;whiteSpace=wrap;connectable=0;strokeColor=inherit;overflow=hidden;fillColor=none;top=0;left=0;bottom=0;right=0;pointerEvents=1;fontSize=16;" vertex="1" parent="28">
                    <mxGeometry x="248" width="62" height="40" as="geometry">
                        <mxRectangle width="62" height="40" as="alternateBounds"/>
                    </mxGeometry>
                </mxCell>
                <mxCell id="34" value="" style="shape=tableRow;horizontal=0;startSize=0;swimlaneHead=0;swimlaneBody=0;strokeColor=inherit;top=0;left=0;bottom=0;right=0;collapsible=0;dropTarget=0;fillColor=none;points=[[0,0.5],[1,0.5]];portConstraint=eastwest;fontSize=16;" vertex="1" parent="21">
                    <mxGeometry y="80" width="310" height="40" as="geometry"/>
                </mxCell>
                <mxCell id="35" value="n..." style="shape=partialRectangle;html=1;whiteSpace=wrap;connectable=0;strokeColor=inherit;overflow=hidden;fillColor=none;top=0;left=0;bottom=0;right=0;pointerEvents=1;fontSize=16;" vertex="1" parent="34">
                    <mxGeometry width="62" height="40" as="geometry">
                        <mxRectangle width="62" height="40" as="alternateBounds"/>
                    </mxGeometry>
                </mxCell>
                <mxCell id="36" style="shape=partialRectangle;html=1;whiteSpace=wrap;connectable=0;strokeColor=inherit;overflow=hidden;fillColor=none;top=0;left=0;bottom=0;right=0;pointerEvents=1;fontSize=16;" vertex="1" parent="34">
                    <mxGeometry x="62" width="62" height="40" as="geometry">
                        <mxRectangle width="62" height="40" as="alternateBounds"/>
                    </mxGeometry>
                </mxCell>
                <mxCell id="37" value="" style="shape=partialRectangle;html=1;whiteSpace=wrap;connectable=0;strokeColor=inherit;overflow=hidden;fillColor=none;top=0;left=0;bottom=0;right=0;pointerEvents=1;fontSize=16;" vertex="1" parent="34">
                    <mxGeometry x="124" width="62" height="40" as="geometry">
                        <mxRectangle width="62" height="40" as="alternateBounds"/>
                    </mxGeometry>
                </mxCell>
                <mxCell id="38" value="" style="shape=partialRectangle;html=1;whiteSpace=wrap;connectable=0;strokeColor=inherit;overflow=hidden;fillColor=none;top=0;left=0;bottom=0;right=0;pointerEvents=1;fontSize=16;" vertex="1" parent="34">
                    <mxGeometry x="186" width="62" height="40" as="geometry">
                        <mxRectangle width="62" height="40" as="alternateBounds"/>
                    </mxGeometry>
                </mxCell>
                <mxCell id="39" value="" style="shape=partialRectangle;html=1;whiteSpace=wrap;connectable=0;strokeColor=inherit;overflow=hidden;fillColor=none;top=0;left=0;bottom=0;right=0;pointerEvents=1;fontSize=16;" vertex="1" parent="34">
                    <mxGeometry x="248" width="62" height="40" as="geometry">
                        <mxRectangle width="62" height="40" as="alternateBounds"/>
                    </mxGeometry>
                </mxCell>
                <mxCell id="40" value="Post Query" style="text;html=1;align=center;verticalAlign=middle;resizable=0;points=[];autosize=1;strokeColor=none;fillColor=none;" vertex="1" parent="1">
                    <mxGeometry x="130" y="440" width="80" height="30" as="geometry"/>
                </mxCell>
            </root>
        </mxGraphModel>
    </diagram>
</mxfile>